<svg width="158" height="38" viewBox="0 0 158 38" fill="none" xmlns="http://www.w3.org/2000/svg">
<path d="M0.0340909 37V2.09091H23.5568V8.17614H7.41477V16.4943H22.3466V22.5795H7.41477V30.9148H23.625V37H0.0340909ZM60.2259 14.3125H52.7599C52.6236 13.3466 52.3452 12.4886 51.9247 11.7386C51.5043 10.9773 50.9645 10.3295 50.3054 9.79545C49.6463 9.26136 48.8849 8.85227 48.0213 8.56818C47.169 8.28409 46.2429 8.14205 45.2429 8.14205C43.4361 8.14205 41.8622 8.59091 40.5213 9.48864C39.1804 10.375 38.1406 11.6705 37.402 13.375C36.6634 15.0682 36.294 17.125 36.294 19.5455C36.294 22.0341 36.6634 24.125 37.402 25.8182C38.152 27.5114 39.1974 28.7898 40.5384 29.6534C41.8793 30.517 43.4304 30.9489 45.1918 30.9489C46.1804 30.9489 47.0952 30.8182 47.9361 30.5568C48.7884 30.2955 49.544 29.9148 50.2031 29.4148C50.8622 28.9034 51.4077 28.2841 51.8395 27.5568C52.2827 26.8295 52.5895 26 52.7599 25.0682L60.2259 25.1023C60.0327 26.7045 59.5497 28.25 58.777 29.7386C58.0156 31.2159 56.9872 32.5398 55.6918 33.7102C54.4077 34.8693 52.8736 35.7898 51.0895 36.4716C49.3168 37.142 47.3111 37.4773 45.0724 37.4773C41.9588 37.4773 39.1747 36.7727 36.7202 35.3636C34.277 33.9545 32.3452 31.9148 30.9247 29.2443C29.5156 26.5739 28.8111 23.3409 28.8111 19.5455C28.8111 15.7386 29.527 12.5 30.9588 9.82955C32.3906 7.15909 34.3338 5.125 36.7884 3.72727C39.2429 2.31818 42.0043 1.61364 45.0724 1.61364C47.0952 1.61364 48.9702 1.89773 50.6974 2.46591C52.4361 3.03409 53.9759 3.86364 55.3168 4.95454C56.6577 6.03409 57.7486 7.35795 58.5895 8.92614C59.4418 10.4943 59.9872 12.2898 60.2259 14.3125ZM72.6435 2.09091V37H65.3821V2.09091H72.6435ZM78.4602 37V10.8182H85.7216V37H78.4602ZM82.108 7.44318C81.0284 7.44318 80.1023 7.08523 79.3295 6.36932C78.5682 5.64204 78.1875 4.77273 78.1875 3.76136C78.1875 2.76136 78.5682 1.90341 79.3295 1.1875C80.1023 0.460226 81.0284 0.0965891 82.108 0.0965891C83.1875 0.0965891 84.108 0.460226 84.8693 1.1875C85.642 1.90341 86.0284 2.76136 86.0284 3.76136C86.0284 4.77273 85.642 5.64204 84.8693 6.36932C84.108 7.08523 83.1875 7.44318 82.108 7.44318ZM98.7997 21.8636V37H91.5384V10.8182H98.4588V15.4375H98.7656C99.3452 13.9148 100.317 12.7102 101.68 11.8239C103.044 10.9261 104.697 10.4773 106.641 10.4773C108.459 10.4773 110.044 10.875 111.396 11.6705C112.749 12.4659 113.8 13.6023 114.55 15.0795C115.3 16.5455 115.675 18.2955 115.675 20.3295V37H108.413V21.625C108.425 20.0227 108.016 18.7727 107.186 17.875C106.357 16.9659 105.214 16.5114 103.76 16.5114C102.783 16.5114 101.919 16.7216 101.169 17.142C100.43 17.5625 99.8509 18.1761 99.4304 18.983C99.0213 19.7784 98.8111 20.7386 98.7997 21.8636ZM121.398 37V10.8182H128.659V37H121.398ZM125.045 7.44318C123.966 7.44318 123.04 7.08523 122.267 6.36932C121.506 5.64204 121.125 4.77273 121.125 3.76136C121.125 2.76136 121.506 1.90341 122.267 1.1875C123.04 0.460226 123.966 0.0965891 125.045 0.0965891C126.125 0.0965891 127.045 0.460226 127.807 1.1875C128.58 1.90341 128.966 2.76136 128.966 3.76136C128.966 4.77273 128.58 5.64204 127.807 6.36932C127.045 7.08523 126.125 7.44318 125.045 7.44318ZM146.305 37.5114C143.624 37.5114 141.317 36.9432 139.385 35.8068C137.464 34.6591 135.987 33.0682 134.953 31.0341C133.93 29 133.419 26.6591 133.419 24.0114C133.419 21.3295 133.936 18.9773 134.97 16.9545C136.016 14.9205 137.499 13.3352 139.419 12.1989C141.339 11.0511 143.624 10.4773 146.271 10.4773C148.555 10.4773 150.555 10.892 152.271 11.7216C153.987 12.5511 155.345 13.7159 156.345 15.2159C157.345 16.7159 157.896 18.4773 157.999 20.5H151.146C150.953 19.1932 150.442 18.142 149.612 17.3466C148.794 16.5398 147.72 16.1364 146.391 16.1364C145.266 16.1364 144.283 16.4432 143.442 17.0568C142.612 17.6591 141.964 18.5398 141.499 19.6989C141.033 20.858 140.8 22.2614 140.8 23.9091C140.8 25.5795 141.027 27 141.482 28.1705C141.947 29.3409 142.601 30.233 143.442 30.8466C144.283 31.4602 145.266 31.767 146.391 31.767C147.22 31.767 147.964 31.5966 148.624 31.2557C149.294 30.9148 149.845 30.4205 150.277 29.7727C150.72 29.1136 151.01 28.3239 151.146 27.4034H157.999C157.885 29.4034 157.339 31.1648 156.362 32.6875C155.396 34.1989 154.061 35.3807 152.357 36.233C150.652 37.0852 148.635 37.5114 146.305 37.5114Z" fill="white"/>
</svg>
