<svg width="189" height="259" viewBox="0 0 189 259" fill="none" xmlns="http://www.w3.org/2000/svg">
<path d="M47.75 122.141V121.716L47.3303 121.648C33.9025 119.462 22.747 113.182 13.8459 102.798C4.94836 92.4173 0.5 80.2092 0.5 66.15L0.5 9.95L28.35 9.95H28.85V9.45V0.5L46.75 0.5V37.3H28.85L28.85 28.35V27.85H28.35H18.9H18.4V28.35L18.4 66.15C18.4 76.6787 22.1547 85.7043 29.6502 93.1998C37.1457 100.695 46.1713 104.45 56.7 104.45C67.2287 104.45 76.2543 100.695 83.7498 93.1998C91.2453 85.7043 95 76.6787 95 66.15V28.35V27.85H94.5H85.05H84.55V28.35V37.3H66.65V0.5L84.55 0.5V9.45V9.95H85.05L112.9 9.95V66.15C112.9 80.2092 108.452 92.4173 99.5541 102.798C90.653 113.182 79.4975 119.462 66.0697 121.648L65.65 121.716V122.141V127.575C65.65 139.519 69.836 149.687 78.1996 158.05C86.5632 166.414 96.7314 170.6 108.675 170.6C120.619 170.6 130.787 166.414 139.15 158.05C147.514 149.687 151.7 139.519 151.7 127.575V111.746V111.389L151.362 111.273C145.951 109.418 141.506 106.096 138.02 101.294C134.54 96.4983 132.8 91.089 132.8 85.05C132.8 77.3061 135.505 70.74 140.922 65.3223C146.34 59.9046 152.906 57.2 160.65 57.2C168.394 57.2 174.96 59.9046 180.378 65.3223C185.795 70.74 188.5 77.3061 188.5 85.05C188.5 91.089 186.76 96.4983 183.28 101.294C179.794 106.096 175.349 109.418 169.938 111.273L169.6 111.389V111.746V127.575C169.6 144.453 163.667 158.816 151.791 170.691C139.916 182.567 125.553 188.5 108.675 188.5C91.7969 188.5 77.4343 182.567 65.5586 170.691C53.6828 158.816 47.75 144.453 47.75 127.575V122.141ZM160.65 95C163.453 95 165.827 94.0463 167.737 92.1367C169.646 90.227 170.6 87.8534 170.6 85.05C170.6 82.2466 169.646 79.873 167.737 77.9633C165.827 76.0537 163.453 75.1 160.65 75.1C157.847 75.1 155.473 76.0537 153.563 77.9633C151.654 79.873 150.7 82.2466 150.7 85.05C150.7 87.8534 151.654 90.227 153.563 92.1367C155.473 94.0463 157.847 95 160.65 95Z" fill="url(#paint0_linear_153_34)" stroke="white"/>
<mask id="path-2-outside-1_153_34" maskUnits="userSpaceOnUse" x="33" y="218" width="135" height="34" fill="black">
<rect fill="white" x="33" y="218" width="135" height="34"/>
<path d="M34.5284 250V220.909H54.1307V225.98H40.679V232.912H53.1222V237.983H40.679V244.929H54.1875V250H34.5284ZM84.6882 231.094H78.4666C78.353 230.289 78.121 229.574 77.7706 228.949C77.4202 228.314 76.9704 227.775 76.4212 227.33C75.8719 226.884 75.2375 226.544 74.5178 226.307C73.8075 226.07 73.0357 225.952 72.2024 225.952C70.6967 225.952 69.3852 226.326 68.2678 227.074C67.1503 227.812 66.2839 228.892 65.6683 230.312C65.0528 231.723 64.745 233.437 64.745 235.455C64.745 237.528 65.0528 239.271 65.6683 240.682C66.2933 242.093 67.1645 243.158 68.282 243.878C69.3994 244.598 70.692 244.957 72.1598 244.957C72.9837 244.957 73.746 244.848 74.4467 244.631C75.157 244.413 75.7867 244.096 76.3359 243.679C76.8852 243.253 77.3397 242.737 77.6996 242.131C78.0689 241.525 78.3246 240.833 78.4666 240.057L84.6882 240.085C84.5272 241.42 84.1248 242.708 83.4808 243.949C82.8464 245.18 81.9893 246.283 80.9098 247.259C79.8397 248.224 78.5613 248.991 77.0746 249.56C75.5973 250.118 73.9259 250.398 72.0604 250.398C69.4657 250.398 67.1456 249.811 65.1001 248.636C63.0642 247.462 61.4543 245.762 60.2706 243.537C59.0964 241.312 58.5092 238.617 58.5092 235.455C58.5092 232.282 59.1058 229.583 60.299 227.358C61.4922 225.133 63.1115 223.437 65.157 222.273C67.2024 221.098 69.5036 220.511 72.0604 220.511C73.746 220.511 75.3085 220.748 76.7479 221.222C78.1967 221.695 79.4799 222.386 80.5973 223.295C81.7147 224.195 82.6238 225.298 83.3246 226.605C84.0348 227.912 84.4893 229.408 84.6882 231.094ZM95.0362 220.909V250H88.9851V220.909H95.0362ZM99.8835 250V228.182H105.935V250H99.8835ZM102.923 225.369C102.024 225.369 101.252 225.071 100.608 224.474C99.9735 223.868 99.6562 223.144 99.6562 222.301C99.6562 221.468 99.9735 220.753 100.608 220.156C101.252 219.55 102.024 219.247 102.923 219.247C103.823 219.247 104.59 219.55 105.224 220.156C105.868 220.753 106.19 221.468 106.19 222.301C106.19 223.144 105.868 223.868 105.224 224.474C104.59 225.071 103.823 225.369 102.923 225.369ZM116.833 237.386V250H110.782V228.182H116.549V232.031H116.805C117.288 230.762 118.097 229.759 119.234 229.02C120.37 228.272 121.748 227.898 123.367 227.898C124.882 227.898 126.203 228.229 127.33 228.892C128.457 229.555 129.333 230.502 129.958 231.733C130.583 232.955 130.896 234.413 130.896 236.108V250H124.844V237.188C124.854 235.852 124.513 234.811 123.822 234.062C123.13 233.305 122.179 232.926 120.967 232.926C120.152 232.926 119.433 233.101 118.808 233.452C118.192 233.802 117.709 234.313 117.359 234.986C117.018 235.649 116.843 236.449 116.833 237.386ZM135.665 250V228.182H141.716V250H135.665ZM138.705 225.369C137.805 225.369 137.033 225.071 136.389 224.474C135.755 223.868 135.438 223.144 135.438 222.301C135.438 221.468 135.755 220.753 136.389 220.156C137.033 219.55 137.805 219.247 138.705 219.247C139.604 219.247 140.371 219.55 141.006 220.156C141.65 220.753 141.972 221.468 141.972 222.301C141.972 223.144 141.65 223.868 141.006 224.474C140.371 225.071 139.604 225.369 138.705 225.369ZM156.421 250.426C154.186 250.426 152.264 249.953 150.654 249.006C149.054 248.049 147.823 246.723 146.961 245.028C146.109 243.333 145.683 241.383 145.683 239.176C145.683 236.941 146.113 234.981 146.975 233.295C147.846 231.6 149.082 230.279 150.683 229.332C152.283 228.376 154.186 227.898 156.393 227.898C158.296 227.898 159.963 228.243 161.393 228.935C162.823 229.626 163.954 230.597 164.788 231.847C165.621 233.097 166.08 234.564 166.165 236.25H160.455C160.294 235.161 159.868 234.285 159.177 233.622C158.495 232.95 157.6 232.614 156.492 232.614C155.555 232.614 154.736 232.869 154.035 233.381C153.344 233.883 152.804 234.616 152.415 235.582C152.027 236.548 151.833 237.718 151.833 239.091C151.833 240.483 152.022 241.667 152.401 242.642C152.79 243.617 153.334 244.361 154.035 244.872C154.736 245.384 155.555 245.639 156.492 245.639C157.183 245.639 157.804 245.497 158.353 245.213C158.912 244.929 159.371 244.517 159.731 243.977C160.1 243.428 160.342 242.77 160.455 242.003H166.165C166.071 243.67 165.616 245.137 164.802 246.406C163.997 247.666 162.884 248.651 161.464 249.361C160.043 250.071 158.362 250.426 156.421 250.426Z"/>
</mask>
<path d="M34.5284 250V220.909H54.1307V225.98H40.679V232.912H53.1222V237.983H40.679V244.929H54.1875V250H34.5284ZM84.6882 231.094H78.4666C78.353 230.289 78.121 229.574 77.7706 228.949C77.4202 228.314 76.9704 227.775 76.4212 227.33C75.8719 226.884 75.2375 226.544 74.5178 226.307C73.8075 226.07 73.0357 225.952 72.2024 225.952C70.6967 225.952 69.3852 226.326 68.2678 227.074C67.1503 227.812 66.2839 228.892 65.6683 230.312C65.0528 231.723 64.745 233.437 64.745 235.455C64.745 237.528 65.0528 239.271 65.6683 240.682C66.2933 242.093 67.1645 243.158 68.282 243.878C69.3994 244.598 70.692 244.957 72.1598 244.957C72.9837 244.957 73.746 244.848 74.4467 244.631C75.157 244.413 75.7867 244.096 76.3359 243.679C76.8852 243.253 77.3397 242.737 77.6996 242.131C78.0689 241.525 78.3246 240.833 78.4666 240.057L84.6882 240.085C84.5272 241.42 84.1248 242.708 83.4808 243.949C82.8464 245.18 81.9893 246.283 80.9098 247.259C79.8397 248.224 78.5613 248.991 77.0746 249.56C75.5973 250.118 73.9259 250.398 72.0604 250.398C69.4657 250.398 67.1456 249.811 65.1001 248.636C63.0642 247.462 61.4543 245.762 60.2706 243.537C59.0964 241.312 58.5092 238.617 58.5092 235.455C58.5092 232.282 59.1058 229.583 60.299 227.358C61.4922 225.133 63.1115 223.437 65.157 222.273C67.2024 221.098 69.5036 220.511 72.0604 220.511C73.746 220.511 75.3085 220.748 76.7479 221.222C78.1967 221.695 79.4799 222.386 80.5973 223.295C81.7147 224.195 82.6238 225.298 83.3246 226.605C84.0348 227.912 84.4893 229.408 84.6882 231.094ZM95.0362 220.909V250H88.9851V220.909H95.0362ZM99.8835 250V228.182H105.935V250H99.8835ZM102.923 225.369C102.024 225.369 101.252 225.071 100.608 224.474C99.9735 223.868 99.6562 223.144 99.6562 222.301C99.6562 221.468 99.9735 220.753 100.608 220.156C101.252 219.55 102.024 219.247 102.923 219.247C103.823 219.247 104.59 219.55 105.224 220.156C105.868 220.753 106.19 221.468 106.19 222.301C106.19 223.144 105.868 223.868 105.224 224.474C104.59 225.071 103.823 225.369 102.923 225.369ZM116.833 237.386V250H110.782V228.182H116.549V232.031H116.805C117.288 230.762 118.097 229.759 119.234 229.02C120.37 228.272 121.748 227.898 123.367 227.898C124.882 227.898 126.203 228.229 127.33 228.892C128.457 229.555 129.333 230.502 129.958 231.733C130.583 232.955 130.896 234.413 130.896 236.108V250H124.844V237.188C124.854 235.852 124.513 234.811 123.822 234.062C123.13 233.305 122.179 232.926 120.967 232.926C120.152 232.926 119.433 233.101 118.808 233.452C118.192 233.802 117.709 234.313 117.359 234.986C117.018 235.649 116.843 236.449 116.833 237.386ZM135.665 250V228.182H141.716V250H135.665ZM138.705 225.369C137.805 225.369 137.033 225.071 136.389 224.474C135.755 223.868 135.438 223.144 135.438 222.301C135.438 221.468 135.755 220.753 136.389 220.156C137.033 219.55 137.805 219.247 138.705 219.247C139.604 219.247 140.371 219.55 141.006 220.156C141.65 220.753 141.972 221.468 141.972 222.301C141.972 223.144 141.65 223.868 141.006 224.474C140.371 225.071 139.604 225.369 138.705 225.369ZM156.421 250.426C154.186 250.426 152.264 249.953 150.654 249.006C149.054 248.049 147.823 246.723 146.961 245.028C146.109 243.333 145.683 241.383 145.683 239.176C145.683 236.941 146.113 234.981 146.975 233.295C147.846 231.6 149.082 230.279 150.683 229.332C152.283 228.376 154.186 227.898 156.393 227.898C158.296 227.898 159.963 228.243 161.393 228.935C162.823 229.626 163.954 230.597 164.788 231.847C165.621 233.097 166.08 234.564 166.165 236.25H160.455C160.294 235.161 159.868 234.285 159.177 233.622C158.495 232.95 157.6 232.614 156.492 232.614C155.555 232.614 154.736 232.869 154.035 233.381C153.344 233.883 152.804 234.616 152.415 235.582C152.027 236.548 151.833 237.718 151.833 239.091C151.833 240.483 152.022 241.667 152.401 242.642C152.79 243.617 153.334 244.361 154.035 244.872C154.736 245.384 155.555 245.639 156.492 245.639C157.183 245.639 157.804 245.497 158.353 245.213C158.912 244.929 159.371 244.517 159.731 243.977C160.1 243.428 160.342 242.77 160.455 242.003H166.165C166.071 243.67 165.616 245.137 164.802 246.406C163.997 247.666 162.884 248.651 161.464 249.361C160.043 250.071 158.362 250.426 156.421 250.426Z" fill="url(#paint1_linear_153_34)"/>
<path d="M34.5284 250H33.5284V251H34.5284V250ZM34.5284 220.909V219.909H33.5284V220.909H34.5284ZM54.1307 220.909H55.1307V219.909H54.1307V220.909ZM54.1307 225.98V226.98H55.1307V225.98H54.1307ZM40.679 225.98V224.98H39.679V225.98H40.679ZM40.679 232.912H39.679V233.912H40.679V232.912ZM53.1222 232.912H54.1222V231.912H53.1222V232.912ZM53.1222 237.983V238.983H54.1222V237.983H53.1222ZM40.679 237.983V236.983H39.679V237.983H40.679ZM40.679 244.929H39.679V245.929H40.679V244.929ZM54.1875 244.929H55.1875V243.929H54.1875V244.929ZM54.1875 250V251H55.1875V250H54.1875ZM35.5284 250V220.909H33.5284V250H35.5284ZM34.5284 221.909H54.1307V219.909H34.5284V221.909ZM53.1307 220.909V225.98H55.1307V220.909H53.1307ZM54.1307 224.98H40.679V226.98H54.1307V224.98ZM39.679 225.98V232.912H41.679V225.98H39.679ZM40.679 233.912H53.1222V231.912H40.679V233.912ZM52.1222 232.912V237.983H54.1222V232.912H52.1222ZM53.1222 236.983H40.679V238.983H53.1222V236.983ZM39.679 237.983V244.929H41.679V237.983H39.679ZM40.679 245.929H54.1875V243.929H40.679V245.929ZM53.1875 244.929V250H55.1875V244.929H53.1875ZM54.1875 249H34.5284V251H54.1875V249ZM84.6882 231.094V232.094H85.8131L85.6813 230.977L84.6882 231.094ZM78.4666 231.094L77.4764 231.234L77.5979 232.094H78.4666V231.094ZM77.7706 228.949L76.8952 229.432L76.8983 229.438L77.7706 228.949ZM76.4212 227.33L75.7916 228.106L75.7916 228.106L76.4212 227.33ZM74.5178 226.307L74.2015 227.256L74.2053 227.257L74.5178 226.307ZM68.2678 227.074L68.8192 227.908L68.8241 227.905L68.2678 227.074ZM65.6683 230.312L66.5849 230.712L66.5859 230.71L65.6683 230.312ZM65.6683 240.682L64.7517 241.082L64.754 241.087L65.6683 240.682ZM68.282 243.878L67.7405 244.719L68.282 243.878ZM74.4467 244.631L74.1535 243.675L74.1499 243.676L74.4467 244.631ZM76.3359 243.679L76.9404 244.476L76.9489 244.469L76.3359 243.679ZM77.6996 242.131L76.8456 241.61L76.8397 241.62L77.6996 242.131ZM78.4666 240.057L78.4712 239.057L77.6337 239.053L77.4829 239.877L78.4666 240.057ZM84.6882 240.085L85.681 240.205L85.8154 239.09L84.6928 239.085L84.6882 240.085ZM83.4808 243.949L82.5933 243.488L82.5919 243.491L83.4808 243.949ZM80.9098 247.259L81.5799 248.001L81.5802 248.001L80.9098 247.259ZM77.0746 249.56L77.4283 250.495L77.4316 250.494L77.0746 249.56ZM65.1001 248.636L64.6005 249.503L64.6023 249.504L65.1001 248.636ZM60.2706 243.537L59.3862 244.004L59.3877 244.007L60.2706 243.537ZM60.299 227.358L61.1803 227.83L60.299 227.358ZM65.157 222.273L65.6518 223.142L65.6548 223.14L65.157 222.273ZM76.7479 221.222L76.4354 222.172L76.4372 222.172L76.7479 221.222ZM80.5973 223.295L79.9662 224.071L79.9702 224.074L80.5973 223.295ZM83.3246 226.605L82.4433 227.078L82.4459 227.083L83.3246 226.605ZM84.6882 230.094H78.4666V232.094H84.6882V230.094ZM79.4568 230.954C79.3282 230.043 79.0614 229.206 78.6429 228.46L76.8983 229.438C77.1805 229.941 77.3778 230.535 77.4764 231.234L79.4568 230.954ZM78.646 228.465C78.2349 227.721 77.7026 227.081 77.0507 226.553L75.7916 228.106C76.2382 228.468 76.6055 228.908 76.8952 229.432L78.646 228.465ZM77.0508 226.553C76.4006 226.026 75.6569 225.629 74.8302 225.357L74.2053 227.257C74.818 227.458 75.3432 227.743 75.7916 228.106L77.0508 226.553ZM74.834 225.358C74.011 225.084 73.1312 224.952 72.2024 224.952V226.952C72.9403 226.952 73.6041 227.056 74.2015 227.256L74.834 225.358ZM72.2024 224.952C70.5232 224.952 69.0128 225.372 67.7114 226.243L68.8241 227.905C69.7576 227.28 70.8702 226.952 72.2024 226.952V224.952ZM67.7163 226.24C66.4131 227.101 65.4311 228.345 64.7508 229.915L66.5859 230.71C67.1366 229.439 67.8876 228.524 68.8192 227.908L67.7163 226.24ZM64.7517 229.913C64.067 231.482 63.745 233.341 63.745 235.455H65.745C65.745 233.534 66.0386 231.965 66.5849 230.712L64.7517 229.913ZM63.745 235.455C63.745 237.621 64.0656 239.509 64.7517 241.082L66.5849 240.282C66.04 239.033 65.745 237.436 65.745 235.455H63.745ZM64.754 241.087C65.445 242.647 66.4338 243.877 67.7405 244.719L68.8234 243.037C67.8953 242.439 67.1416 241.539 66.5826 240.277L64.754 241.087ZM67.7405 244.719C69.036 245.553 70.5207 245.957 72.1598 245.957V243.957C70.8633 243.957 69.7628 243.642 68.8234 243.037L67.7405 244.719ZM72.1598 245.957C73.0721 245.957 73.9357 245.837 74.7435 245.586L74.1499 243.676C73.5563 243.86 72.8952 243.957 72.1598 243.957V245.957ZM74.7399 245.587C75.5537 245.337 76.2905 244.969 76.9403 244.476L75.7316 242.882C75.2829 243.223 74.7602 243.489 74.1535 243.675L74.7399 245.587ZM76.9489 244.469C77.5987 243.965 78.1365 243.354 78.5594 242.641L76.8397 241.62C76.543 242.12 76.1717 242.541 75.7229 242.889L76.9489 244.469ZM78.5535 242.651C78.9933 241.929 79.2887 241.12 79.4503 240.237L77.4829 239.877C77.3605 240.546 77.1445 241.12 76.8456 241.61L78.5535 242.651ZM78.4621 241.057L84.6836 241.085L84.6928 239.085L78.4712 239.057L78.4621 241.057ZM83.6954 239.966C83.5493 241.177 83.1842 242.35 82.5933 243.488L84.3684 244.41C85.0654 243.067 85.5051 241.664 85.681 240.205L83.6954 239.966ZM82.5919 243.491C82.0154 244.609 81.2342 245.618 80.2394 246.517L81.5802 248.001C82.7445 246.949 83.6773 245.75 84.3697 244.407L82.5919 243.491ZM80.2397 246.516C79.2704 247.391 78.101 248.097 76.7176 248.626L77.4316 250.494C79.0216 249.886 80.4091 249.058 81.5799 248.001L80.2397 246.516ZM76.7208 248.624C75.375 249.133 73.8265 249.398 72.0604 249.398V251.398C74.0253 251.398 75.8196 251.103 77.4283 250.495L76.7208 248.624ZM72.0604 249.398C69.6224 249.398 67.4771 248.848 65.598 247.769L64.6023 249.504C66.8141 250.773 69.3089 251.398 72.0604 251.398V249.398ZM65.5998 247.77C63.738 246.696 62.2558 245.14 61.1535 243.067L59.3877 244.007C60.6528 246.385 62.3903 248.228 64.6005 249.503L65.5998 247.77ZM61.155 243.07C60.0737 241.021 59.5092 238.496 59.5092 235.455H57.5092C57.5092 238.739 58.119 241.602 59.3862 244.004L61.155 243.07ZM59.5092 235.455C59.5092 232.406 60.0825 229.878 61.1803 227.83L59.4177 226.885C58.1291 229.289 57.5092 232.159 57.5092 235.455H59.5092ZM61.1803 227.83C62.2913 225.758 63.7819 224.207 65.6518 223.142L64.6621 221.404C62.4411 222.668 60.6931 224.507 59.4177 226.885L61.1803 227.83ZM65.6548 223.14C67.5362 222.06 69.6631 221.511 72.0604 221.511V219.511C69.344 219.511 66.8687 220.137 64.6591 221.405L65.6548 223.14ZM72.0604 221.511C73.6516 221.511 75.1075 221.735 76.4354 222.172L77.0603 220.272C75.5095 219.762 73.8403 219.511 72.0604 219.511V221.511ZM76.4372 222.172C77.7763 222.61 78.9494 223.244 79.9662 224.071L81.2284 222.52C80.0103 221.529 78.6171 220.78 77.0585 220.271L76.4372 222.172ZM79.9702 224.074C80.9797 224.887 81.8037 225.885 82.4433 227.078L84.2059 226.133C83.4439 224.712 82.4498 223.503 81.2244 222.517L79.9702 224.074ZM82.4459 227.083C83.0875 228.263 83.509 229.634 83.6951 231.211L85.6813 230.977C85.4696 229.182 84.9821 227.561 84.2032 226.128L82.4459 227.083ZM95.0362 220.909H96.0362V219.909H95.0362V220.909ZM95.0362 250V251H96.0362V250H95.0362ZM88.9851 250H87.9851V251H88.9851V250ZM88.9851 220.909V219.909H87.9851V220.909H88.9851ZM94.0362 220.909V250H96.0362V220.909H94.0362ZM95.0362 249H88.9851V251H95.0362V249ZM89.9851 250V220.909H87.9851V250H89.9851ZM88.9851 221.909H95.0362V219.909H88.9851V221.909ZM99.8835 250H98.8835V251H99.8835V250ZM99.8835 228.182V227.182H98.8835V228.182H99.8835ZM105.935 228.182H106.935V227.182H105.935V228.182ZM105.935 250V251H106.935V250H105.935ZM100.608 224.474L99.9172 225.198L99.9227 225.203L99.9283 225.208L100.608 224.474ZM100.608 220.156L101.293 220.885L101.293 220.884L100.608 220.156ZM105.224 220.156L104.534 220.879L104.539 220.885L104.545 220.89L105.224 220.156ZM105.224 224.474L105.909 225.203L105.91 225.203L105.224 224.474ZM100.884 250V228.182H98.8835V250H100.884ZM99.8835 229.182H105.935V227.182H99.8835V229.182ZM104.935 228.182V250H106.935V228.182H104.935ZM105.935 249H99.8835V251H105.935V249ZM102.923 224.369C102.269 224.369 101.742 224.162 101.288 223.741L99.9283 225.208C100.762 225.981 101.779 226.369 102.923 226.369V224.369ZM101.299 223.751C100.853 223.325 100.656 222.858 100.656 222.301H98.6562C98.6562 223.429 99.0943 224.412 99.9172 225.198L101.299 223.751ZM100.656 222.301C100.656 221.757 100.849 221.302 101.293 220.885L99.9229 219.428C99.0977 220.204 98.6562 221.178 98.6562 222.301H100.656ZM101.293 220.884C101.748 220.456 102.273 220.247 102.923 220.247V218.247C101.774 218.247 100.756 218.644 99.9226 219.428L101.293 220.884ZM102.923 220.247C103.573 220.247 104.09 220.456 104.534 220.879L105.915 219.433C105.089 218.644 104.073 218.247 102.923 218.247V220.247ZM104.545 220.89C104.997 221.309 105.19 221.763 105.19 222.301H107.19C107.19 221.173 106.74 220.197 105.904 219.423L104.545 220.89ZM105.19 222.301C105.19 222.853 104.993 223.319 104.539 223.746L105.91 225.203C106.743 224.418 107.19 223.435 107.19 222.301H105.19ZM104.539 223.746C104.097 224.162 103.578 224.369 102.923 224.369V226.369C104.068 226.369 105.083 225.98 105.909 225.203L104.539 223.746ZM116.833 237.386L115.833 237.376V237.386H116.833ZM116.833 250V251H117.833V250H116.833ZM110.782 250H109.782V251H110.782V250ZM110.782 228.182V227.182H109.782V228.182H110.782ZM116.549 228.182H117.549V227.182H116.549V228.182ZM116.549 232.031H115.549V233.031H116.549V232.031ZM116.805 232.031V233.031H117.494L117.739 232.387L116.805 232.031ZM119.234 229.02L119.779 229.858L119.784 229.855L119.234 229.02ZM127.33 228.892L127.837 228.03L127.33 228.892ZM129.958 231.733L129.066 232.186L129.068 232.188L129.958 231.733ZM130.896 250V251H131.896V250H130.896ZM124.844 250H123.844V251H124.844V250ZM124.844 237.188L123.844 237.18V237.188H124.844ZM123.822 234.062L123.083 234.737L123.087 234.741L123.822 234.062ZM118.808 233.452L118.319 232.579L118.313 232.583L118.808 233.452ZM117.359 234.986L116.472 234.524L116.469 234.528L117.359 234.986ZM115.833 237.386V250H117.833V237.386H115.833ZM116.833 249H110.782V251H116.833V249ZM111.782 250V228.182H109.782V250H111.782ZM110.782 229.182H116.549V227.182H110.782V229.182ZM115.549 228.182V232.031H117.549V228.182H115.549ZM116.549 233.031H116.805V231.031H116.549V233.031ZM117.739 232.387C118.147 231.316 118.82 230.481 119.779 229.858L118.689 228.181C117.374 229.036 116.428 230.209 115.87 231.676L117.739 232.387ZM119.784 229.855C120.728 229.234 121.906 228.898 123.367 228.898V226.898C121.59 226.898 120.012 227.31 118.684 228.185L119.784 229.855ZM123.367 228.898C124.733 228.898 125.873 229.195 126.823 229.754L127.837 228.03C126.534 227.263 125.032 226.898 123.367 226.898V228.898ZM126.823 229.754C127.776 230.314 128.523 231.115 129.066 232.186L130.85 231.28C130.143 229.889 129.138 228.795 127.837 228.03L126.823 229.754ZM129.068 232.188C129.606 233.24 129.896 234.535 129.896 236.108H131.896C131.896 234.291 131.56 232.669 130.848 231.277L129.068 232.188ZM129.896 236.108V250H131.896V236.108H129.896ZM130.896 249H124.844V251H130.896V249ZM125.844 250V237.188H123.844V250H125.844ZM125.844 237.195C125.855 235.687 125.468 234.371 124.556 233.384L123.087 234.741C123.558 235.251 123.853 236.018 123.844 237.18L125.844 237.195ZM124.56 233.388C123.645 232.385 122.404 231.926 120.967 231.926V233.926C121.953 233.926 122.616 234.225 123.083 234.737L124.56 233.388ZM120.967 231.926C120.005 231.926 119.112 232.134 118.319 232.579L119.297 234.324C119.753 234.068 120.3 233.926 120.967 233.926V231.926ZM118.313 232.583C117.518 233.035 116.905 233.693 116.472 234.524L118.245 235.448C118.514 234.934 118.866 234.569 119.302 234.321L118.313 232.583ZM116.469 234.528C116.041 235.361 115.844 236.322 115.833 237.376L117.833 237.396C117.841 236.575 117.994 235.937 118.248 235.443L116.469 234.528ZM135.665 250H134.665V251H135.665V250ZM135.665 228.182V227.182H134.665V228.182H135.665ZM141.716 228.182H142.716V227.182H141.716V228.182ZM141.716 250V251H142.716V250H141.716ZM136.389 224.474L135.698 225.198L135.704 225.203L135.71 225.208L136.389 224.474ZM136.389 220.156L137.074 220.885L137.075 220.884L136.389 220.156ZM141.006 220.156L140.315 220.879L140.32 220.885L140.326 220.89L141.006 220.156ZM141.006 224.474L141.691 225.203L141.691 225.203L141.006 224.474ZM136.665 250V228.182H134.665V250H136.665ZM135.665 229.182H141.716V227.182H135.665V229.182ZM140.716 228.182V250H142.716V228.182H140.716ZM141.716 249H135.665V251H141.716V249ZM138.705 224.369C138.05 224.369 137.523 224.162 137.069 223.741L135.71 225.208C136.543 225.981 137.56 226.369 138.705 226.369V224.369ZM137.08 223.751C136.634 223.325 136.438 222.858 136.438 222.301H134.438C134.438 223.429 134.876 224.412 135.698 225.198L137.08 223.751ZM136.438 222.301C136.438 221.757 136.631 221.302 137.074 220.885L135.704 219.428C134.879 220.204 134.438 221.178 134.438 222.301H136.438ZM137.075 220.884C137.529 220.456 138.055 220.247 138.705 220.247V218.247C137.555 218.247 136.537 218.644 135.704 219.428L137.075 220.884ZM138.705 220.247C139.354 220.247 139.872 220.456 140.315 220.879L141.696 219.433C140.871 218.644 139.854 218.247 138.705 218.247V220.247ZM140.326 220.89C140.778 221.309 140.972 221.763 140.972 222.301H142.972C142.972 221.173 142.521 220.197 141.685 219.423L140.326 220.89ZM140.972 222.301C140.972 222.853 140.775 223.319 140.32 223.746L141.691 225.203C142.525 224.418 142.972 223.435 142.972 222.301H140.972ZM140.321 223.746C139.878 224.162 139.359 224.369 138.705 224.369V226.369C139.849 226.369 140.864 225.98 141.691 225.203L140.321 223.746ZM150.654 249.006L150.141 249.864L150.147 249.868L150.654 249.006ZM146.961 245.028L146.068 245.478L146.07 245.482L146.961 245.028ZM146.975 233.295L146.086 232.838L146.085 232.84L146.975 233.295ZM150.683 229.332L151.192 230.193L151.196 230.191L150.683 229.332ZM161.393 228.935L161.828 228.034L161.393 228.935ZM164.788 231.847L163.956 232.401L164.788 231.847ZM166.165 236.25V237.25H167.217L167.164 236.2L166.165 236.25ZM160.455 236.25L159.466 236.396L159.592 237.25H160.455V236.25ZM159.177 233.622L158.475 234.334L158.485 234.344L159.177 233.622ZM154.035 233.381L154.622 234.19L154.624 234.188L154.035 233.381ZM152.401 242.642L151.469 243.004L151.472 243.012L152.401 242.642ZM154.035 244.872L154.624 244.064L154.035 244.872ZM158.353 245.213L157.9 244.322L157.894 244.325L158.353 245.213ZM159.731 243.977L158.901 243.419L158.899 243.423L159.731 243.977ZM160.455 242.003V241.003H159.592L159.466 241.856L160.455 242.003ZM166.165 242.003L167.164 242.06L167.224 241.003H166.165V242.003ZM164.802 246.406L163.96 245.866L163.959 245.868L164.802 246.406ZM161.464 249.361L161.017 248.466L161.464 249.361ZM156.421 249.426C154.329 249.426 152.59 248.984 151.161 248.144L150.147 249.868C151.938 250.921 154.043 251.426 156.421 251.426V249.426ZM151.167 248.147C149.732 247.29 148.63 246.106 147.852 244.575L146.07 245.482C147.015 247.341 148.376 248.809 150.141 249.864L151.167 248.147ZM147.854 244.579C147.083 243.045 146.683 241.252 146.683 239.176H144.683C144.683 241.513 145.135 243.622 146.068 245.478L147.854 244.579ZM146.683 239.176C146.683 237.071 147.088 235.272 147.866 233.751L146.085 232.84C145.139 234.69 144.683 236.811 144.683 239.176H146.683ZM147.865 233.753C148.652 232.221 149.758 231.042 151.192 230.193L150.173 228.472C148.406 229.517 147.041 230.98 146.086 232.838L147.865 233.753ZM151.196 230.191C152.614 229.343 154.334 228.898 156.393 228.898V226.898C154.039 226.898 151.951 227.409 150.17 228.474L151.196 230.191ZM156.393 228.898C158.175 228.898 159.688 229.221 160.958 229.835L161.828 228.034C160.238 227.266 158.417 226.898 156.393 226.898V228.898ZM160.958 229.835C162.236 230.453 163.227 231.308 163.956 232.401L165.62 231.292C164.682 229.885 163.409 228.799 161.828 228.034L160.958 229.835ZM163.956 232.401C164.677 233.483 165.089 234.772 165.167 236.3L167.164 236.2C167.071 234.357 166.565 232.71 165.62 231.292L163.956 232.401ZM166.165 235.25H160.455V237.25H166.165V235.25ZM161.445 236.104C161.256 234.83 160.744 233.739 159.869 232.9L158.485 234.344C158.993 234.831 159.332 235.492 159.466 236.396L161.445 236.104ZM159.879 232.91C158.981 232.024 157.818 231.614 156.492 231.614V233.614C157.382 233.614 158.01 233.875 158.475 234.334L159.879 232.91ZM156.492 231.614C155.361 231.614 154.331 231.926 153.445 232.573L154.624 234.188C155.14 233.812 155.749 233.614 156.492 233.614V231.614ZM153.447 232.571C152.574 233.206 151.931 234.107 151.488 235.209L153.343 235.955C153.677 235.126 154.114 234.559 154.622 234.19L153.447 232.571ZM151.488 235.209C151.039 236.325 150.833 237.629 150.833 239.091H152.833C152.833 237.807 153.015 236.771 153.343 235.955L151.488 235.209ZM150.833 239.091C150.833 240.568 151.033 241.882 151.469 243.004L153.333 242.28C153.012 241.451 152.833 240.398 152.833 239.091H150.833ZM151.472 243.012C151.915 244.125 152.563 245.036 153.445 245.68L154.624 244.064C154.105 243.685 153.664 243.11 153.33 242.272L151.472 243.012ZM153.445 245.68C154.331 246.326 155.361 246.639 156.492 246.639V244.639C155.749 244.639 155.14 244.441 154.624 244.064L153.445 245.68ZM156.492 246.639C157.324 246.639 158.105 246.467 158.812 246.101L157.894 244.325C157.502 244.527 157.043 244.639 156.492 244.639V246.639ZM158.806 246.104C159.524 245.74 160.111 245.209 160.563 244.532L158.899 243.423C158.631 243.825 158.3 244.118 157.9 244.322L158.806 246.104ZM160.561 244.535C161.026 243.843 161.313 243.039 161.444 242.149L159.466 241.856C159.371 242.501 159.174 243.013 158.901 243.419L160.561 244.535ZM160.455 243.003H166.165V241.003H160.455V243.003ZM165.167 241.946C165.081 243.46 164.672 244.757 163.96 245.866L165.643 246.946C166.561 245.517 167.06 243.879 167.164 242.06L165.167 241.946ZM163.959 245.868C163.258 246.965 162.286 247.832 161.017 248.466L161.911 250.255C163.482 249.469 164.736 248.366 165.644 246.945L163.959 245.868ZM161.017 248.466C159.762 249.093 158.241 249.426 156.421 249.426V251.426C158.484 251.426 160.324 251.049 161.911 250.255L161.017 248.466Z" fill="white" mask="url(#path-2-outside-1_153_34)"/>
<defs>
<linearGradient id="paint0_linear_153_34" x1="94.5" y1="0" x2="94.5" y2="189" gradientUnits="userSpaceOnUse">
<stop stop-color="#8CE7E7"/>
<stop offset="0.618932" stop-color="#50B7C5"/>
</linearGradient>
<linearGradient id="paint1_linear_153_34" x1="100" y1="211" x2="100" y2="259" gradientUnits="userSpaceOnUse">
<stop stop-color="#8CE7E7"/>
<stop offset="0.618932" stop-color="#50B7C5"/>
</linearGradient>
</defs>
</svg>
