<svg width="192" height="192" viewBox="0 0 192 192" fill="none" xmlns="http://www.w3.org/2000/svg">
<path d="M110.4 192C93.12 192 78.4 185.92 66.24 173.76C54.08 161.6 48 146.88 48 129.6V124.08C34.24 121.84 22.8 115.4 13.68 104.76C4.56 94.12 0 81.6 0 67.2L0 9.6L28.8 9.6V0L48 0V38.4H28.8L28.8 28.8H19.2L19.2 67.2C19.2 77.76 22.96 86.8 30.48 94.32C38 101.84 47.04 105.6 57.6 105.6C68.16 105.6 77.2 101.84 84.72 94.32C92.24 86.8 96 77.76 96 67.2V28.8L86.4 28.8V38.4H67.2V0L86.4 0V9.6L115.2 9.6V67.2C115.2 81.6 110.64 94.12 101.52 104.76C92.4 115.4 80.96 121.84 67.2 124.08L67.2 129.6C67.2 141.6 71.4 151.8 79.8 160.2C88.2 168.6 98.4 172.8 110.4 172.8C122.4 172.8 132.6 168.6 141 160.2C149.4 151.8 153.6 141.6 153.6 129.6V113.52C148 111.6 143.4 108.16 139.8 103.2C136.2 98.24 134.4 92.64 134.4 86.4C134.4 78.4 137.2 71.6 142.8 66C148.4 60.4 155.2 57.6 163.2 57.6C171.2 57.6 178 60.4 183.6 66C189.2 71.6 192 78.4 192 86.4C192 92.64 190.2 98.24 186.6 103.2C183 108.16 178.4 111.6 172.8 113.52V129.6C172.8 146.88 166.72 161.6 154.56 173.76C142.4 185.92 127.68 192 110.4 192ZM163.2 96C165.92 96 168.2 95.08 170.04 93.24C171.88 91.4 172.8 89.12 172.8 86.4C172.8 83.68 171.88 81.4 170.04 79.56C168.2 77.72 165.92 76.8 163.2 76.8C160.48 76.8 158.2 77.72 156.36 79.56C154.52 81.4 153.6 83.68 153.6 86.4C153.6 89.12 154.52 91.4 156.36 93.24C158.2 95.08 160.48 96 163.2 96Z" fill="white"/>
</svg>
