<svg width="25" height="25" viewBox="0 0 25 25" fill="none" xmlns="http://www.w3.org/2000/svg">
<path d="M0 21.25V18.75H3.125V10C3.125 8.27083 3.77604 6.73438 5.07812 5.39062C6.38021 4.04688 8.07292 3.16667 10.1562 2.75V1.875C10.1562 1.35417 10.3841 0.911458 10.8398 0.546875C11.2956 0.182292 11.849 0 12.5 0C13.151 0 13.7044 0.182292 14.1602 0.546875C14.6159 0.911458 14.8438 1.35417 14.8438 1.875V2.75C16.9271 3.16667 18.6198 4.04688 19.9219 5.39062C21.224 6.73438 21.875 8.27083 21.875 10V18.75H25V21.25H0ZM12.5 25C11.6406 25 10.9049 24.7552 10.293 24.2656C9.68099 23.776 9.375 23.1875 9.375 22.5H15.625C15.625 23.1875 15.319 23.776 14.707 24.2656C14.0951 24.7552 13.3594 25 12.5 25ZM6.25 18.75H18.75V10C18.75 8.625 18.138 7.44792 16.9141 6.46875C15.6901 5.48958 14.2188 5 12.5 5C10.7812 5 9.3099 5.48958 8.08594 6.46875C6.86198 7.44792 6.25 8.625 6.25 10V18.75Z" fill="#757575"/>
</svg>
