<svg width="20" height="11" viewBox="0 0 20 11" fill="none" xmlns="http://www.w3.org/2000/svg">
<path d="M2 11C1.45 11 0.979167 10.8654 0.5875 10.5961C0.195833 10.3268 0 10.0031 0 9.625V1.375C0 0.996875 0.195833 0.673177 0.5875 0.403906C0.979167 0.134635 1.45 0 2 0H14C14.55 0 15.0208 0.134635 15.4125 0.403906C15.8042 0.673177 16 0.996875 16 1.375V4.46875L20 1.71875V9.28125L16 6.53125V9.625C16 10.0031 15.8042 10.3268 15.4125 10.5961C15.0208 10.8654 14.55 11 14 11H2ZM2 9.625H14V1.375H2V9.625Z" fill="white"/>
</svg>
