<svg width="143" height="11" viewBox="0 0 143 11" fill="none" xmlns="http://www.w3.org/2000/svg">
<path d="M2.26278 10H0.285511L3.2983 1.27273H5.67614L8.68466 10H6.70739L4.52131 3.26705H4.45312L2.26278 10ZM2.1392 6.5696H6.80966V8.00994H2.1392V6.5696ZM11.8082 10.1065C11.3111 10.1065 10.8608 9.97869 10.4574 9.72301C10.0568 9.46449 9.73864 9.08523 9.50284 8.58523C9.26989 8.08239 9.15341 7.46591 9.15341 6.7358C9.15341 5.9858 9.27415 5.36222 9.51562 4.86506C9.7571 4.36506 10.0781 3.99148 10.4787 3.74432C10.8821 3.49432 11.3239 3.36932 11.804 3.36932C12.1705 3.36932 12.4759 3.43182 12.7202 3.55682C12.9673 3.67898 13.1662 3.83239 13.3168 4.01705C13.4702 4.19886 13.5866 4.37784 13.6662 4.55398H13.7216V1.27273H15.5327V10H13.7429V8.9517H13.6662C13.581 9.13352 13.4602 9.31392 13.304 9.4929C13.1506 9.66903 12.9503 9.81534 12.7031 9.93182C12.4588 10.0483 12.1605 10.1065 11.8082 10.1065ZM12.3835 8.66193C12.6761 8.66193 12.9233 8.58239 13.125 8.4233C13.3295 8.26136 13.4858 8.03551 13.5938 7.74574C13.7045 7.45597 13.7599 7.11648 13.7599 6.72727C13.7599 6.33807 13.706 6 13.598 5.71307C13.4901 5.42614 13.3338 5.20455 13.1293 5.0483C12.9247 4.89205 12.6761 4.81392 12.3835 4.81392C12.0852 4.81392 11.8338 4.89489 11.6293 5.05682C11.4247 5.21875 11.2699 5.44318 11.1648 5.73011C11.0597 6.01705 11.0071 6.34943 11.0071 6.72727C11.0071 7.10795 11.0597 7.4446 11.1648 7.73722C11.2727 8.02699 11.4276 8.25426 11.6293 8.41903C11.8338 8.58097 12.0852 8.66193 12.3835 8.66193ZM19.4371 10.1065C18.94 10.1065 18.4897 9.97869 18.0863 9.72301C17.6857 9.46449 17.3675 9.08523 17.1317 8.58523C16.8988 8.08239 16.7823 7.46591 16.7823 6.7358C16.7823 5.9858 16.9031 5.36222 17.1445 4.86506C17.386 4.36506 17.707 3.99148 18.1076 3.74432C18.511 3.49432 18.9528 3.36932 19.4329 3.36932C19.7994 3.36932 20.1048 3.43182 20.3491 3.55682C20.5962 3.67898 20.7951 3.83239 20.9457 4.01705C21.0991 4.19886 21.2156 4.37784 21.2951 4.55398H21.3505V1.27273H23.1616V10H21.3718V8.9517H21.2951C21.2099 9.13352 21.0891 9.31392 20.9329 9.4929C20.7795 9.66903 20.5792 9.81534 20.332 9.93182C20.0877 10.0483 19.7894 10.1065 19.4371 10.1065ZM20.0124 8.66193C20.305 8.66193 20.5522 8.58239 20.7539 8.4233C20.9585 8.26136 21.1147 8.03551 21.2227 7.74574C21.3335 7.45597 21.3888 7.11648 21.3888 6.72727C21.3888 6.33807 21.3349 6 21.2269 5.71307C21.119 5.42614 20.9627 5.20455 20.7582 5.0483C20.5536 4.89205 20.305 4.81392 20.0124 4.81392C19.7141 4.81392 19.4627 4.89489 19.2582 5.05682C19.0536 5.21875 18.8988 5.44318 18.7937 5.73011C18.6886 6.01705 18.636 6.34943 18.636 6.72727C18.636 7.10795 18.6886 7.4446 18.7937 7.73722C18.9016 8.02699 19.0565 8.25426 19.2582 8.41903C19.4627 8.58097 19.7141 8.66193 20.0124 8.66193ZM30.2429 1.27273H32.5185L34.9219 7.13636H35.0241L37.4276 1.27273H39.7031V10H37.9134V4.3196H37.8409L35.5824 9.95739H34.3636L32.1051 4.2983H32.0327V10H30.2429V1.27273ZM44.1722 10.1278C43.4989 10.1278 42.9194 9.99148 42.4336 9.71875C41.9506 9.44318 41.5785 9.05398 41.3171 8.55114C41.0558 8.04545 40.9251 7.44744 40.9251 6.7571C40.9251 6.08381 41.0558 5.4929 41.3171 4.98438C41.5785 4.47585 41.9464 4.07955 42.4208 3.79545C42.8981 3.51136 43.4577 3.36932 44.0998 3.36932C44.5316 3.36932 44.9336 3.43892 45.3058 3.57812C45.6808 3.71449 46.0075 3.92045 46.2859 4.19602C46.5671 4.47159 46.7859 4.81818 46.9421 5.2358C47.0984 5.65057 47.1765 6.13636 47.1765 6.69318V7.19176H41.6495V6.06676H45.4677C45.4677 5.8054 45.4109 5.57386 45.2972 5.37216C45.1836 5.17045 45.0259 5.01278 44.8242 4.89915C44.6254 4.78267 44.3938 4.72443 44.1296 4.72443C43.854 4.72443 43.6097 4.78835 43.3967 4.91619C43.1864 5.04119 43.0217 5.21023 42.9023 5.4233C42.783 5.63352 42.7219 5.8679 42.7191 6.12642V7.19602C42.7191 7.51989 42.7788 7.79972 42.8981 8.03551C43.0202 8.27131 43.1921 8.45312 43.4137 8.58097C43.6353 8.70881 43.8981 8.77273 44.2021 8.77273C44.4038 8.77273 44.5884 8.74432 44.756 8.6875C44.9237 8.63068 45.0671 8.54545 45.1864 8.43182C45.3058 8.31818 45.3967 8.17898 45.4592 8.0142L47.1381 8.125C47.0529 8.52841 46.8782 8.88068 46.614 9.18182C46.3526 9.48011 46.0146 9.71307 45.5998 9.88068C45.1879 10.0455 44.712 10.1278 44.1722 10.1278ZM50.7731 10.1065C50.2759 10.1065 49.8256 9.97869 49.4222 9.72301C49.0217 9.46449 48.7035 9.08523 48.4677 8.58523C48.2347 8.08239 48.1183 7.46591 48.1183 6.7358C48.1183 5.9858 48.239 5.36222 48.4805 4.86506C48.7219 4.36506 49.043 3.99148 49.4435 3.74432C49.8469 3.49432 50.2887 3.36932 50.7688 3.36932C51.1353 3.36932 51.4407 3.43182 51.685 3.55682C51.9322 3.67898 52.131 3.83239 52.2816 4.01705C52.435 4.19886 52.5515 4.37784 52.631 4.55398H52.6864V1.27273H54.4975V10H52.7077V8.9517H52.631C52.5458 9.13352 52.4251 9.31392 52.2688 9.4929C52.1154 9.66903 51.9151 9.81534 51.668 9.93182C51.4237 10.0483 51.1254 10.1065 50.7731 10.1065ZM51.3484 8.66193C51.641 8.66193 51.8881 8.58239 52.0898 8.4233C52.2944 8.26136 52.4506 8.03551 52.5586 7.74574C52.6694 7.45597 52.7248 7.11648 52.7248 6.72727C52.7248 6.33807 52.6708 6 52.5629 5.71307C52.4549 5.42614 52.2987 5.20455 52.0941 5.0483C51.8896 4.89205 51.641 4.81392 51.3484 4.81392C51.0501 4.81392 50.7987 4.89489 50.5941 5.05682C50.3896 5.21875 50.2347 5.44318 50.1296 5.73011C50.0245 6.01705 49.9719 6.34943 49.9719 6.72727C49.9719 7.10795 50.0245 7.4446 50.1296 7.73722C50.2376 8.02699 50.3924 8.25426 50.5941 8.41903C50.7987 8.58097 51.0501 8.66193 51.3484 8.66193ZM55.9901 10V3.45455H57.8054V10H55.9901ZM56.902 2.6108C56.6321 2.6108 56.4006 2.52131 56.2074 2.34233C56.017 2.16051 55.9219 1.94318 55.9219 1.69034C55.9219 1.44034 56.017 1.22585 56.2074 1.04688C56.4006 0.865057 56.6321 0.774147 56.902 0.774147C57.1719 0.774147 57.402 0.865057 57.5923 1.04688C57.7855 1.22585 57.8821 1.44034 57.8821 1.69034C57.8821 1.94318 57.7855 2.16051 57.5923 2.34233C57.402 2.52131 57.1719 2.6108 56.902 2.6108ZM62.217 10.1278C61.5465 10.1278 60.9698 9.9858 60.4869 9.7017C60.0067 9.41477 59.6374 9.01705 59.3789 8.50852C59.1232 8 58.9954 7.41477 58.9954 6.75284C58.9954 6.08239 59.1246 5.49432 59.3832 4.98864C59.6445 4.48011 60.0153 4.08381 60.4954 3.79972C60.9755 3.51278 61.5465 3.36932 62.2085 3.36932C62.7795 3.36932 63.2795 3.47301 63.7085 3.6804C64.1374 3.88778 64.4769 4.17898 64.7269 4.55398C64.9769 4.92898 65.1147 5.36932 65.1403 5.875H63.4272C63.3789 5.5483 63.2511 5.28551 63.0437 5.08665C62.8391 4.88494 62.5707 4.78409 62.2383 4.78409C61.957 4.78409 61.7113 4.8608 61.5011 5.0142C61.2937 5.16477 61.1317 5.38494 61.0153 5.67472C60.8988 5.96449 60.8406 6.31534 60.8406 6.72727C60.8406 7.14489 60.8974 7.5 61.011 7.79261C61.1275 8.08523 61.2908 8.30824 61.5011 8.46165C61.7113 8.61506 61.957 8.69176 62.2383 8.69176C62.4457 8.69176 62.6317 8.64915 62.7965 8.56392C62.9641 8.47869 63.1019 8.35511 63.2099 8.19318C63.3207 8.02841 63.3931 7.83097 63.4272 7.60085H65.1403C65.1119 8.10085 64.9755 8.54119 64.7312 8.92188C64.4897 9.29972 64.1559 9.59517 63.7298 9.80824C63.3036 10.0213 62.7994 10.1278 62.217 10.1278ZM66.3026 10V3.45455H68.1179V10H66.3026ZM67.2145 2.6108C66.9446 2.6108 66.7131 2.52131 66.5199 2.34233C66.3295 2.16051 66.2344 1.94318 66.2344 1.69034C66.2344 1.44034 66.3295 1.22585 66.5199 1.04688C66.7131 0.865057 66.9446 0.774147 67.2145 0.774147C67.4844 0.774147 67.7145 0.865057 67.9048 1.04688C68.098 1.22585 68.1946 1.44034 68.1946 1.69034C68.1946 1.94318 68.098 2.16051 67.9048 2.34233C67.7145 2.52131 67.4844 2.6108 67.2145 2.6108ZM71.3874 6.21591V10H69.5721V3.45455H71.3022V4.60938H71.3789C71.5238 4.22869 71.7667 3.92756 72.1076 3.70597C72.4485 3.48153 72.8619 3.36932 73.3477 3.36932C73.8022 3.36932 74.1985 3.46875 74.5366 3.66761C74.8746 3.86648 75.1374 4.15057 75.3249 4.51989C75.5124 4.88636 75.6062 5.32386 75.6062 5.83239V10H73.7908V6.15625C73.7937 5.75568 73.6914 5.44318 73.484 5.21875C73.2766 4.99148 72.9911 4.87784 72.6275 4.87784C72.3832 4.87784 72.1673 4.9304 71.9798 5.03551C71.7951 5.14062 71.6502 5.29403 71.5451 5.49574C71.4428 5.6946 71.3903 5.93466 71.3874 6.21591ZM80.0199 10.1278C79.3466 10.1278 78.767 9.99148 78.2812 9.71875C77.7983 9.44318 77.4261 9.05398 77.1648 8.55114C76.9034 8.04545 76.7727 7.44744 76.7727 6.7571C76.7727 6.08381 76.9034 5.4929 77.1648 4.98438C77.4261 4.47585 77.794 4.07955 78.2685 3.79545C78.7457 3.51136 79.3054 3.36932 79.9474 3.36932C80.3793 3.36932 80.7813 3.43892 81.1534 3.57812C81.5284 3.71449 81.8551 3.92045 82.1335 4.19602C82.4148 4.47159 82.6335 4.81818 82.7898 5.2358C82.946 5.65057 83.0241 6.13636 83.0241 6.69318V7.19176H77.4972V6.06676H81.3153C81.3153 5.8054 81.2585 5.57386 81.1449 5.37216C81.0313 5.17045 80.8736 5.01278 80.6719 4.89915C80.473 4.78267 80.2415 4.72443 79.9773 4.72443C79.7017 4.72443 79.4574 4.78835 79.2443 4.91619C79.0341 5.04119 78.8693 5.21023 78.75 5.4233C78.6307 5.63352 78.5696 5.8679 78.5668 6.12642V7.19602C78.5668 7.51989 78.6264 7.79972 78.7457 8.03551C78.8679 8.27131 79.0398 8.45312 79.2614 8.58097C79.483 8.70881 79.7457 8.77273 80.0497 8.77273C80.2514 8.77273 80.4361 8.74432 80.6037 8.6875C80.7713 8.63068 80.9148 8.54545 81.0341 8.43182C81.1534 8.31818 81.2443 8.17898 81.3068 8.0142L82.9858 8.125C82.9006 8.52841 82.7259 8.88068 82.4616 9.18182C82.2003 9.48011 81.8622 9.71307 81.4474 9.88068C81.0355 10.0455 80.5597 10.1278 80.0199 10.1278ZM87.0202 10V1.27273H90.4634C91.1225 1.27273 91.685 1.39062 92.1509 1.62642C92.6197 1.85937 92.9762 2.19034 93.2205 2.61932C93.4677 3.04545 93.5913 3.54687 93.5913 4.12358C93.5913 4.70312 93.4663 5.2017 93.2163 5.61932C92.9663 6.03409 92.604 6.35227 92.1296 6.57386C91.658 6.79545 91.087 6.90625 90.4165 6.90625H88.1112V5.4233H90.1183C90.4705 5.4233 90.7631 5.375 90.9961 5.27841C91.229 5.18182 91.4023 5.03693 91.516 4.84375C91.6325 4.65057 91.6907 4.41051 91.6907 4.12358C91.6907 3.83381 91.6325 3.58949 91.516 3.39062C91.4023 3.19176 91.2276 3.04119 90.9918 2.93892C90.7589 2.83381 90.4648 2.78125 90.1097 2.78125H88.8654V10H87.0202ZM91.7333 6.02841L93.9023 10H91.8654L89.7433 6.02841H91.7333ZM97.7386 10.1278C97.0653 10.1278 96.4858 9.99148 96 9.71875C95.517 9.44318 95.1449 9.05398 94.8835 8.55114C94.6222 8.04545 94.4915 7.44744 94.4915 6.7571C94.4915 6.08381 94.6222 5.4929 94.8835 4.98438C95.1449 4.47585 95.5128 4.07955 95.9872 3.79545C96.4645 3.51136 97.0241 3.36932 97.6662 3.36932C98.098 3.36932 98.5 3.43892 98.8722 3.57812C99.2472 3.71449 99.5739 3.92045 99.8523 4.19602C100.134 4.47159 100.352 4.81818 100.509 5.2358C100.665 5.65057 100.743 6.13636 100.743 6.69318V7.19176H95.2159V6.06676H99.0341C99.0341 5.8054 98.9773 5.57386 98.8636 5.37216C98.75 5.17045 98.5923 5.01278 98.3906 4.89915C98.1918 4.78267 97.9602 4.72443 97.696 4.72443C97.4205 4.72443 97.1761 4.78835 96.9631 4.91619C96.7528 5.04119 96.5881 5.21023 96.4688 5.4233C96.3494 5.63352 96.2884 5.8679 96.2855 6.12642V7.19602C96.2855 7.51989 96.3452 7.79972 96.4645 8.03551C96.5866 8.27131 96.7585 8.45312 96.9801 8.58097C97.2017 8.70881 97.4645 8.77273 97.7685 8.77273C97.9702 8.77273 98.1548 8.74432 98.3224 8.6875C98.4901 8.63068 98.6335 8.54545 98.7528 8.43182C98.8722 8.31818 98.9631 8.17898 99.0256 8.0142L100.705 8.125C100.619 8.52841 100.445 8.88068 100.18 9.18182C99.919 9.48011 99.581 9.71307 99.1662 9.88068C98.7543 10.0455 98.2784 10.1278 97.7386 10.1278ZM101.928 10V3.45455H103.658V4.60938H103.734C103.871 4.22585 104.098 3.9233 104.416 3.7017C104.734 3.48011 105.115 3.36932 105.558 3.36932C106.007 3.36932 106.389 3.48153 106.705 3.70597C107.02 3.92756 107.23 4.22869 107.335 4.60938H107.403C107.537 4.23438 107.778 3.93466 108.128 3.71023C108.48 3.48295 108.896 3.36932 109.376 3.36932C109.987 3.36932 110.483 3.56392 110.864 3.95312C111.247 4.33949 111.439 4.88778 111.439 5.59801V10H109.628V5.95597C109.628 5.59233 109.531 5.3196 109.338 5.13778C109.145 4.95597 108.903 4.86506 108.614 4.86506C108.284 4.86506 108.027 4.97017 107.842 5.1804C107.658 5.38778 107.565 5.66193 107.565 6.00284V10H105.805V5.91761C105.805 5.59659 105.713 5.34091 105.528 5.15057C105.347 4.96023 105.107 4.86506 104.808 4.86506C104.607 4.86506 104.425 4.91619 104.263 5.01847C104.104 5.1179 103.977 5.25852 103.884 5.44034C103.79 5.61932 103.743 5.82955 103.743 6.07102V10H101.928ZM112.873 10V3.45455H114.688V10H112.873ZM113.785 2.6108C113.515 2.6108 113.283 2.52131 113.09 2.34233C112.9 2.16051 112.805 1.94318 112.805 1.69034C112.805 1.44034 112.9 1.22585 113.09 1.04688C113.283 0.865057 113.515 0.774147 113.785 0.774147C114.055 0.774147 114.285 0.865057 114.475 1.04688C114.668 1.22585 114.765 1.44034 114.765 1.69034C114.765 1.94318 114.668 2.16051 114.475 2.34233C114.285 2.52131 114.055 2.6108 113.785 2.6108ZM117.958 6.21591V10H116.142V3.45455H117.873V4.60938H117.949C118.094 4.22869 118.337 3.92756 118.678 3.70597C119.019 3.48153 119.432 3.36932 119.918 3.36932C120.373 3.36932 120.769 3.46875 121.107 3.66761C121.445 3.86648 121.708 4.15057 121.895 4.51989C122.083 4.88636 122.176 5.32386 122.176 5.83239V10H120.361V6.15625C120.364 5.75568 120.262 5.44318 120.054 5.21875C119.847 4.99148 119.561 4.87784 119.198 4.87784C118.953 4.87784 118.738 4.9304 118.55 5.03551C118.365 5.14062 118.221 5.29403 118.115 5.49574C118.013 5.6946 117.961 5.93466 117.958 6.21591ZM126.019 10.1065C125.522 10.1065 125.072 9.97869 124.668 9.72301C124.268 9.46449 123.95 9.08523 123.714 8.58523C123.481 8.08239 123.364 7.46591 123.364 6.7358C123.364 5.9858 123.485 5.36222 123.727 4.86506C123.968 4.36506 124.289 3.99148 124.69 3.74432C125.093 3.49432 125.535 3.36932 126.015 3.36932C126.381 3.36932 126.687 3.43182 126.931 3.55682C127.178 3.67898 127.377 3.83239 127.528 4.01705C127.681 4.19886 127.798 4.37784 127.877 4.55398H127.933V1.27273H129.744V10H127.954V8.9517H127.877C127.792 9.13352 127.671 9.31392 127.515 9.4929C127.362 9.66903 127.161 9.81534 126.914 9.93182C126.67 10.0483 126.371 10.1065 126.019 10.1065ZM126.594 8.66193C126.887 8.66193 127.134 8.58239 127.336 8.4233C127.54 8.26136 127.697 8.03551 127.805 7.74574C127.915 7.45597 127.971 7.11648 127.971 6.72727C127.971 6.33807 127.917 6 127.809 5.71307C127.701 5.42614 127.545 5.20455 127.34 5.0483C127.136 4.89205 126.887 4.81392 126.594 4.81392C126.296 4.81392 126.045 4.89489 125.84 5.05682C125.636 5.21875 125.481 5.44318 125.376 5.73011C125.271 6.01705 125.218 6.34943 125.218 6.72727C125.218 7.10795 125.271 7.4446 125.376 7.73722C125.484 8.02699 125.638 8.25426 125.84 8.41903C126.045 8.58097 126.296 8.66193 126.594 8.66193ZM134.219 10.1278C133.546 10.1278 132.966 9.99148 132.48 9.71875C131.998 9.44318 131.625 9.05398 131.364 8.55114C131.103 8.04545 130.972 7.44744 130.972 6.7571C130.972 6.08381 131.103 5.4929 131.364 4.98438C131.625 4.47585 131.993 4.07955 132.468 3.79545C132.945 3.51136 133.505 3.36932 134.147 3.36932C134.578 3.36932 134.98 3.43892 135.353 3.57812C135.728 3.71449 136.054 3.92045 136.333 4.19602C136.614 4.47159 136.833 4.81818 136.989 5.2358C137.145 5.65057 137.223 6.13636 137.223 6.69318V7.19176H131.696V6.06676H135.515C135.515 5.8054 135.458 5.57386 135.344 5.37216C135.23 5.17045 135.073 5.01278 134.871 4.89915C134.672 4.78267 134.441 4.72443 134.176 4.72443C133.901 4.72443 133.657 4.78835 133.444 4.91619C133.233 5.04119 133.069 5.21023 132.949 5.4233C132.83 5.63352 132.769 5.8679 132.766 6.12642V7.19602C132.766 7.51989 132.826 7.79972 132.945 8.03551C133.067 8.27131 133.239 8.45312 133.461 8.58097C133.682 8.70881 133.945 8.77273 134.249 8.77273C134.451 8.77273 134.635 8.74432 134.803 8.6875C134.971 8.63068 135.114 8.54545 135.233 8.43182C135.353 8.31818 135.444 8.17898 135.506 8.0142L137.185 8.125C137.1 8.52841 136.925 8.88068 136.661 9.18182C136.4 9.48011 136.061 9.71307 135.647 9.88068C135.235 10.0455 134.759 10.1278 134.219 10.1278ZM138.408 10V3.45455H140.168V4.59659H140.236C140.355 4.19034 140.556 3.88352 140.837 3.67614C141.118 3.46591 141.442 3.3608 141.809 3.3608C141.9 3.3608 141.998 3.36648 142.103 3.37784C142.208 3.3892 142.3 3.40483 142.38 3.42472V5.03551C142.294 5.00994 142.176 4.98722 142.026 4.96733C141.875 4.94744 141.738 4.9375 141.613 4.9375C141.346 4.9375 141.107 4.99574 140.897 5.11222C140.689 5.22585 140.525 5.38494 140.402 5.58949C140.283 5.79403 140.223 6.02983 140.223 6.29688V10H138.408Z" fill="black"/>
</svg>
