<svg width="25" height="20" viewBox="0 0 25 20" fill="none" xmlns="http://www.w3.org/2000/svg">
<path d="M2.63158 20C1.90789 20 1.28838 19.7824 0.773026 19.3472C0.257675 18.912 0 18.3889 0 17.7778V2.22222C0 1.61111 0.257675 1.08796 0.773026 0.652778C1.28838 0.217593 1.90789 0 2.63158 0H21.0526C21.7763 0 22.3958 0.217593 22.9112 0.652778C23.4265 1.08796 23.6842 1.61111 23.6842 2.22222V5H21.0526V2.22222H2.63158V17.7778H21.0526V15H23.6842V17.7778C23.6842 18.3889 23.4265 18.912 22.9112 19.3472C22.3958 19.7824 21.7763 20 21.0526 20H2.63158ZM13.1579 15.5556C12.4342 15.5556 11.8147 15.338 11.2993 14.9028C10.784 14.4676 10.5263 13.9444 10.5263 13.3333V6.66667C10.5263 6.05556 10.784 5.53241 11.2993 5.09722C11.8147 4.66204 12.4342 4.44444 13.1579 4.44444H22.3684C23.0921 4.44444 23.7116 4.66204 24.227 5.09722C24.7423 5.53241 25 6.05556 25 6.66667V13.3333C25 13.9444 24.7423 14.4676 24.227 14.9028C23.7116 15.338 23.0921 15.5556 22.3684 15.5556H13.1579ZM22.3684 13.3333V6.66667H13.1579V13.3333H22.3684ZM17.1053 11.6667C17.6535 11.6667 18.1195 11.5046 18.5033 11.1806C18.8871 10.8565 19.0789 10.463 19.0789 10C19.0789 9.53704 18.8871 9.14352 18.5033 8.81944C18.1195 8.49537 17.6535 8.33333 17.1053 8.33333C16.557 8.33333 16.091 8.49537 15.7072 8.81944C15.3235 9.14352 15.1316 9.53704 15.1316 10C15.1316 10.463 15.3235 10.8565 15.7072 11.1806C16.091 11.5046 16.557 11.6667 17.1053 11.6667Z" fill="#757575"/>
</svg>
