<svg width="25" height="25" viewBox="0 0 25 25" fill="none" xmlns="http://www.w3.org/2000/svg">
<path d="M12.5 0C9.18479 0 6.00537 1.31696 3.66116 3.66116C1.31696 6.00537 0 9.18479 0 12.5C0 15.8152 1.31696 18.9946 3.66116 21.3388C6.00537 23.683 9.18479 25 12.5 25C15.8152 25 18.9946 23.683 21.3388 21.3388C23.683 18.9946 25 15.8152 25 12.5C25 9.18479 23.683 6.00537 21.3388 3.66116C18.9946 1.31696 15.8152 0 12.5 0Z" fill="#039BE5"/>
<path d="M14.1921 15.8132H17.4269L17.9348 12.527H14.1914V10.7309C14.1914 9.36582 14.6375 8.15529 15.9144 8.15529H17.9664V5.28753C17.6059 5.23884 16.8434 5.13226 15.4026 5.13226C12.3941 5.13226 10.6302 6.72108 10.6302 10.3408V12.527H7.53748V15.8132H10.6302V24.8454C11.2427 24.9375 11.8631 25 12.5 25C13.0756 25 13.6375 24.9474 14.1921 24.8724V15.8132Z" fill="white"/>
</svg>
