<svg width="23" height="23" viewBox="0 0 23 23" fill="none" xmlns="http://www.w3.org/2000/svg">
<path d="M22.54 11.7614C22.54 10.9459 22.4668 10.1618 22.3309 9.40912H11.5V13.8628H17.6891C17.4173 15.295 16.6018 16.5078 15.3786 17.3232V20.2191H19.1109C21.2855 18.2118 22.54 15.2637 22.54 11.7614Z" fill="#4285F4"/>
<path d="M11.5 23C14.605 23 17.2082 21.9754 19.1109 20.2191L15.3786 17.3232C14.3541 18.0132 13.0473 18.4313 11.5 18.4313C8.51001 18.4313 5.96955 16.4136 5.06001 13.6954H1.23364V16.6645C3.12592 20.4177 7.00455 23 11.5 23Z" fill="#34A853"/>
<path d="M5.06 13.685C4.83 12.995 4.69409 12.2632 4.69409 11.5C4.69409 10.7369 4.83 10.005 5.06 9.31504V6.34595H1.23364C0.449546 7.89322 0 9.63913 0 11.5C0 13.3609 0.449546 15.1069 1.23364 16.6541L4.21318 14.3332L5.06 13.685Z" fill="#FBBC05"/>
<path d="M11.5 4.57909C13.1936 4.57909 14.6991 5.16455 15.9014 6.29364L19.1946 3.00045C17.1977 1.13955 14.605 0 11.5 0C7.00455 0 3.12592 2.58227 1.23364 6.34591L5.06001 9.315C5.96955 6.59682 8.51001 4.57909 11.5 4.57909Z" fill="#EA4335"/>
</svg>
