<svg width="49" height="49" viewBox="0 0 49 49" fill="none" xmlns="http://www.w3.org/2000/svg">
<g filter="url(#filter0_d_204_34)">
<rect x="4" width="41" height="41" rx="15" fill="white"/>
<rect x="4.5" y="0.5" width="40" height="40" rx="14.5" stroke="#A49B9B"/>
</g>
<path d="M24.5 8C21.1848 8 18.0054 9.31696 15.6612 11.6612C13.317 14.0054 12 17.1848 12 20.5C12 23.8152 13.317 26.9946 15.6612 29.3388C18.0054 31.683 21.1848 33 24.5 33C27.8152 33 30.9946 31.683 33.3388 29.3388C35.683 26.9946 37 23.8152 37 20.5C37 17.1848 35.683 14.0054 33.3388 11.6612C30.9946 9.31696 27.8152 8 24.5 8Z" fill="#039BE5"/>
<path d="M26.1921 23.8132H29.4269L29.9348 20.527H26.1914V18.7309C26.1914 17.3658 26.6375 16.1553 27.9144 16.1553H29.9664V13.2875C29.6059 13.2388 28.8434 13.1323 27.4026 13.1323C24.3941 13.1323 22.6302 14.7211 22.6302 18.3408V20.527H19.5375V23.8132H22.6302V32.8454C23.2427 32.9375 23.8631 33 24.5 33C25.0756 33 25.6375 32.9474 26.1921 32.8724V23.8132Z" fill="white"/>
<defs>
<filter id="filter0_d_204_34" x="0" y="0" width="49" height="49" filterUnits="userSpaceOnUse" color-interpolation-filters="sRGB">
<feFlood flood-opacity="0" result="BackgroundImageFix"/>
<feColorMatrix in="SourceAlpha" type="matrix" values="0 0 0 0 0 0 0 0 0 0 0 0 0 0 0 0 0 0 127 0" result="hardAlpha"/>
<feOffset dy="4"/>
<feGaussianBlur stdDeviation="2"/>
<feComposite in2="hardAlpha" operator="out"/>
<feColorMatrix type="matrix" values="0 0 0 0 0 0 0 0 0 0 0 0 0 0 0 0 0 0 0.25 0"/>
<feBlend mode="normal" in2="BackgroundImageFix" result="effect1_dropShadow_204_34"/>
<feBlend mode="normal" in="SourceGraphic" in2="effect1_dropShadow_204_34" result="shape"/>
</filter>
</defs>
</svg>
